<?xml version="1.0" encoding="utf-8"?>
<svg xmlns="http://www.w3.org/2000/svg">
  <path d="M 724.073 184.934 L 752.073 184.934 L 752.073 276.788 L 697.073 276.788 L 689.073 271.221 L 688.073 269.365 L 687.073 218.335 L 682.073 217.407 L 682.073 232.253 L 656.073 232.253 L 655.073 225.758 L 655.073 215.552 L 653.073 216.48 L 653.073 261.015 L 657.073 261.943 L 658.073 244.314 L 682.073 244.314 L 682.073 259.159 L 679.073 267.51 L 674.073 272.149 L 669.073 275.86 L 661.073 278.643 L 646.073 278.643 L 636.073 274.932 L 631.073 271.221 L 627.073 265.654 L 626.073 262.871 L 625.073 251.737 L 625.073 231.325 L 626.073 214.624 L 630.073 209.057 L 637.073 203.49 L 646.073 199.779 L 660.073 199.779 L 671.073 203.49 L 677.073 208.129 L 681.073 213.696 L 682.073 202.562 L 687.073 201.635 L 688.073 191.429 L 690.073 190.501 L 714.073 190.501 L 715.073 193.284 L 715.073 201.635 L 721.073 202.562 L 721.073 216.48 L 720.073 217.407 L 715.073 217.407 L 715.073 261.943 L 723.073 261.015 L 723.073 202.562 L 724.073 200.707 L 724.073 184.934 Z" fill="#87CCEC" style=""/>
  <path d="M 1183.073 184.934 L 1238.073 184.934 L 1238.073 201.635 L 1209.073 203.49 L 1209.073 209.985 L 1213.073 209.057 L 1229.073 209.057 L 1237.073 212.768 L 1240.073 216.48 L 1243.073 226.686 L 1244.073 237.819 L 1244.073 252.665 L 1242.073 262.871 L 1239.073 268.437 L 1234.073 273.077 L 1226.073 277.716 L 1210.073 279.571 L 1198.073 276.788 L 1189.073 271.221 L 1184.073 264.726 L 1182.073 259.159 L 1182.073 241.531 L 1183.073 240.603 L 1208.073 240.603 L 1209.073 241.531 L 1210.073 256.376 L 1211.073 261.015 L 1214.073 261.015 L 1214.073 227.613 L 1211.073 226.686 L 1209.073 233.18 L 1182.073 233.18 L 1182.073 212.768 L 1180.073 213.696 L 1178.073 235.036 L 1172.073 274.932 L 1171.073 276.788 L 1137.073 276.788 L 1135.073 273.077 L 1126.073 215.552 L 1124.073 207.201 L 1124.073 201.635 L 1149.073 201.635 L 1154.073 232.253 L 1154.073 234.108 L 1156.073 234.108 L 1156.073 202.562 L 1163.073 200.707 L 1182.073 199.779 L 1183.073 184.934 Z" fill="#87CCEC" style=""/>
  <path d="M 398.073 184.934 L 435.073 184.934 L 447.073 187.717 L 453.073 191.429 L 457.073 196.068 L 459.073 203.49 L 459.073 251.737 L 458.073 265.654 L 455.073 271.221 L 450.073 274.932 L 445.073 276.788 L 397.073 276.788 L 397.073 203.49 L 398.073 184.934 Z" fill="#87CCEC" style=""/>
  <path d="M 60.073 183.078 L 72.073 183.078 L 81.073 184.934 L 89.073 189.573 L 96.073 196.995 L 98.073 202.562 L 98.073 256.376 L 96.073 264.726 L 92.073 270.293 L 86.073 274.932 L 77.073 278.643 L 73.073 279.571 L 63.073 279.571 L 52.073 275.86 L 46.073 272.149 L 40.073 265.654 L 38.073 261.015 L 37.073 253.592 L 37.073 220.191 L 38.073 200.707 L 42.073 193.284 L 50.073 186.789 L 60.073 183.078 Z" fill="#87CCEC" style=""/>
  <path d="M 103.073 184.934 L 131.073 184.934 L 132.073 201.635 L 139.073 199.779 L 150.073 199.779 L 158.073 204.418 L 161.073 207.201 L 162.073 209.985 L 162.073 262.871 L 161.073 269.365 L 156.073 274.932 L 147.073 278.643 L 138.073 277.716 L 134.073 275.86 L 128.073 276.788 L 104.073 277.716 L 103.073 276.788 L 103.073 184.934 Z" fill="#87CCEC" style=""/>
  <path d="M 855.073 199.779 L 865.073 199.779 L 873.073 204.418 L 876.073 207.201 L 878.073 213.696 L 878.073 276.788 L 851.073 276.788 L 850.073 216.48 L 848.073 216.48 L 847.073 276.788 L 837.073 277.716 L 820.073 277.716 L 818.073 276.788 L 818.073 257.304 L 819.073 201.635 L 853.073 200.707 L 855.073 199.779 Z" fill="#87CCEC" style=""/>
  <path d="M 991.073 199.779 L 1006.073 199.779 L 1017.073 203.49 L 1024.073 209.057 L 1029.073 218.335 L 1029.073 258.231 L 1025.073 267.51 L 1020.073 273.077 L 1010.073 277.716 L 1005.073 278.643 L 992.073 278.643 L 982.073 275.86 L 975.073 270.293 L 971.073 262.871 L 970.073 257.304 L 970.073 232.253 L 971.073 216.48 L 975.073 209.057 L 983.073 202.562 L 991.073 199.779 Z" fill="#87CCEC" style=""/>
  <path d="M 1087.073 199.779 L 1102.073 199.779 L 1113.073 203.49 L 1119.073 208.129 L 1123.073 214.624 L 1124.073 219.263 L 1125.073 235.964 L 1125.073 255.448 L 1123.073 263.798 L 1118.073 271.221 L 1109.073 276.788 L 1102.073 278.643 L 1087.073 278.643 L 1076.073 274.932 L 1069.073 267.51 L 1066.073 258.231 L 1065.073 246.17 L 1065.073 230.397 L 1067.073 217.407 L 1071.073 209.057 L 1079.073 202.562 L 1087.073 199.779 Z" fill="#87CCEC" style=""/>
  <path d="M 776.073 199.779 L 791.073 199.779 L 802.073 203.49 L 809.073 208.129 L 814.073 216.48 L 814.073 261.943 L 809.073 270.293 L 801.073 275.86 L 792.073 278.643 L 776.073 278.643 L 766.073 274.932 L 759.073 267.51 L 756.073 261.015 L 756.073 219.263 L 758.073 212.768 L 764.073 205.346 L 776.073 199.779 Z" fill="#87CCEC" style=""/>
  <path d="M 584.073 199.779 L 599.073 199.779 L 609.073 203.49 L 617.073 209.985 L 620.073 215.552 L 622.073 226.686 L 622.073 241.531 L 621.073 242.459 L 591.073 242.459 L 591.073 261.943 L 594.073 261.015 L 595.073 244.314 L 598.073 243.386 L 621.073 243.386 L 622.073 244.314 L 622.073 253.592 L 620.073 263.798 L 614.073 272.149 L 606.073 276.788 L 600.073 278.643 L 584.073 278.643 L 574.073 274.932 L 568.073 270.293 L 564.073 264.726 L 563.073 261.015 L 562.073 245.242 L 562.073 230.397 L 563.073 216.48 L 567.073 209.057 L 574.073 203.49 L 584.073 199.779 Z" fill="#87CCEC" style=""/>
  <path d="M 484.073 199.779 L 499.073 199.779 L 510.073 203.49 L 518.073 210.913 L 522.073 221.119 L 522.073 241.531 L 521.073 242.459 L 490.073 242.459 L 491.073 261.015 L 495.073 261.015 L 496.073 245.242 L 502.073 243.386 L 521.073 243.386 L 522.073 244.314 L 522.073 261.015 L 518.073 268.437 L 511.073 274.932 L 504.073 277.716 L 499.073 278.643 L 486.073 278.643 L 475.073 274.932 L 470.073 271.221 L 464.073 262.871 L 463.073 257.304 L 463.073 238.747 L 464.073 215.552 L 468.073 209.057 L 476.073 202.562 L 484.073 199.779 Z" fill="#87CCEC" style=""/>
  <path d="M 221.073 199.779 L 236.073 199.779 L 246.073 203.49 L 255.073 210.913 L 258.073 217.407 L 258.073 242.459 L 242.073 242.459 L 228.073 243.386 L 228.073 261.015 L 232.073 261.943 L 233.073 244.314 L 237.073 243.386 L 258.073 243.386 L 259.073 247.098 L 259.073 256.376 L 257.073 264.726 L 251.073 272.149 L 243.073 276.788 L 236.073 278.643 L 223.073 278.643 L 212.073 274.932 L 205.073 269.365 L 201.073 262.871 L 200.073 259.159 L 200.073 226.686 L 201.073 214.624 L 206.073 207.201 L 215.073 201.635 L 221.073 199.779 Z" fill="#87CCEC" style=""/>
  <path d="M 283.073 199.779 L 297.073 199.779 L 308.073 203.49 L 315.073 209.057 L 319.073 214.624 L 320.073 219.263 L 320.073 232.253 L 294.073 232.253 L 294.073 217.407 L 291.073 218.335 L 291.073 261.015 L 294.073 261.943 L 295.073 244.314 L 320.073 244.314 L 320.073 257.304 L 316.073 267.51 L 310.073 274.004 L 299.073 278.643 L 284.073 278.643 L 274.073 274.932 L 267.073 269.365 L 263.073 261.943 L 262.073 258.231 L 262.073 219.263 L 266.073 209.985 L 275.073 202.562 L 283.073 199.779 Z" fill="#87CCEC" style=""/>
  <path d="M 914.073 184.934 L 941.073 184.934 L 943.073 202.562 L 946.073 202.562 L 949.073 187.717 L 950.073 184.934 L 977.073 184.934 L 975.073 193.284 L 965.073 222.047 L 959.073 242.459 L 958.073 276.788 L 932.073 276.788 L 931.073 248.953 L 928.073 234.108 L 914.073 187.717 L 914.073 184.934 Z" fill="#87CCEC" style=""/>
  <path d="M 346.073 190.501 L 352.073 190.501 L 353.073 191.429 L 353.073 202.562 L 359.073 202.562 L 360.073 216.48 L 354.073 218.335 L 354.073 261.943 L 359.073 262.871 L 359.073 276.788 L 336.073 276.788 L 328.073 272.149 L 324.073 264.726 L 323.073 219.263 L 321.073 216.48 L 320.073 210.913 L 320.073 203.49 L 323.073 201.635 L 325.073 191.429 L 346.073 190.501 Z" fill="#87CCEC" style=""/>
  <path d="M 1033.073 184.934 L 1061.073 184.934 L 1062.073 185.862 L 1062.073 276.788 L 1033.073 276.788 L 1033.073 184.934 Z" fill="#87CCEC" style=""/>
  <path d="M 528.073 190.501 L 554.073 190.501 L 555.073 191.429 L 556.073 201.635 L 562.073 203.49 L 560.073 216.48 L 556.073 218.335 L 556.073 261.943 L 562.073 263.798 L 563.073 275.86 L 559.073 277.716 L 544.073 277.716 L 536.073 275.86 L 530.073 272.149 L 528.073 268.437 L 527.073 218.335 L 523.073 217.407 L 523.073 202.562 L 527.073 201.635 L 528.073 190.501 Z" fill="#87CCEC" style=""/>
  <path d="M 168.073 201.635 L 196.073 201.635 L 196.073 274.004 L 192.073 282.355 L 186.073 286.066 L 174.073 287.922 L 164.073 287.922 L 162.073 286.994 L 162.073 274.004 L 166.073 271.221 L 167.073 251.737 L 168.073 201.635 Z" fill="#87CCEC" style=""/>
  <path d="M 1274.073 211.841 L 1297.073 211.841 L 1307.073 214.624 L 1314.073 220.191 L 1316.073 224.83 L 1316.073 235.036 L 1312.073 242.459 L 1304.073 248.025 L 1297.073 249.881 L 1283.073 249.881 L 1282.073 274.004 L 1274.073 274.004 L 1274.073 211.841 Z" fill="#87CCEC" style=""/>
  <path d="M 1531.073 211.841 L 1538.073 211.841 L 1539.073 212.768 L 1539.073 227.613 L 1555.073 227.613 L 1555.073 231.325 L 1539.073 231.325 L 1540.073 268.437 L 1550.073 268.437 L 1555.073 267.51 L 1556.073 269.365 L 1553.073 272.149 L 1550.073 273.077 L 1540.073 273.077 L 1534.073 269.365 L 1531.073 264.726 L 1530.073 231.325 L 1523.073 232.253 L 1523.073 236.892 L 1518.073 235.036 L 1510.073 232.253 L 1501.073 234.108 L 1496.073 238.747 L 1493.073 245.242 L 1493.073 255.448 L 1496.073 262.871 L 1501.073 267.51 L 1503.073 268.437 L 1513.073 268.437 L 1521.073 263.798 L 1524.073 263.798 L 1523.073 268.437 L 1515.073 273.077 L 1510.073 274.004 L 1502.073 274.004 L 1494.073 270.293 L 1489.073 265.654 L 1485.073 258.231 L 1485.073 243.386 L 1490.073 234.108 L 1496.073 229.469 L 1505.073 226.686 L 1515.073 227.613 L 1521.073 230.397 L 1523.073 230.397 L 1525.073 227.613 L 1530.073 226.686 L 1531.073 211.841 Z" fill="#87CCEC" style=""/>
  <path d="M 1459.073 226.686 L 1467.073 227.613 L 1475.073 233.18 L 1478.073 238.747 L 1479.073 248.953 L 1478.073 249.881 L 1443.073 249.881 L 1446.073 261.015 L 1450.073 265.654 L 1456.073 268.437 L 1466.073 268.437 L 1476.073 263.798 L 1479.073 262.871 L 1478.073 268.437 L 1472.073 272.149 L 1464.073 274.004 L 1457.073 274.004 L 1447.073 271.221 L 1441.073 266.582 L 1437.073 260.087 L 1436.073 256.376 L 1436.073 245.242 L 1440.073 235.964 L 1448.073 229.469 L 1453.073 227.613 L 1459.073 226.686 Z" fill="#87CCEC" style=""/>
  <path d="M 1373.073 226.686 L 1381.073 226.686 L 1389.073 229.469 L 1396.073 236.892 L 1399.073 243.386 L 1399.073 257.304 L 1394.073 266.582 L 1387.073 272.149 L 1382.073 274.004 L 1371.073 274.004 L 1361.073 268.437 L 1356.073 261.015 L 1354.073 252.665 L 1355.073 242.459 L 1360.073 233.18 L 1369.073 227.613 L 1373.073 226.686 Z M 1373.073 232.253 L 1367.073 235.964 L 1363.073 241.531 L 1362.073 244.314 L 1362.073 257.304 L 1366.073 264.726 L 1371.073 268.437 L 1379.073 269.365 L 1385.073 266.582 L 1390.073 261.015 L 1392.073 256.376 L 1392.073 246.17 L 1389.073 237.819 L 1383.073 233.18 L 1381.073 232.253 L 1373.073 232.253 Z" fill="#87CCEC" style=""/>
  <path d="M 361.073 229.469 L 393.073 229.469 L 393.073 248.025 L 360.073 248.953 L 359.073 248.025 L 359.073 230.397 L 361.073 229.469 Z" fill="#87CCEC" style=""/>
  <path d="M 907.073 229.469 L 915.073 229.469 L 915.073 248.025 L 880.073 248.025 L 880.073 230.397 L 907.073 229.469 Z" fill="#87CCEC" style=""/>
  <path d="M 1415.073 226.686 L 1423.073 226.686 L 1423.073 278.643 L 1420.073 286.066 L 1415.073 289.777 L 1410.073 291.633 L 1401.073 291.633 L 1399.073 287.922 L 1404.073 286.994 L 1410.073 286.066 L 1414.073 282.355 L 1415.073 279.571 L 1415.073 258.231 L 1414.073 232.253 L 1407.073 232.253 L 1406.073 227.613 L 1415.073 226.686 Z" fill="#87CCEC" style=""/>
  <path d="M 1326.073 226.686 L 1332.073 226.686 L 1334.073 233.18 L 1345.073 227.613 L 1352.073 226.686 L 1352.073 234.108 L 1340.073 235.964 L 1334.073 239.675 L 1334.073 272.149 L 1332.073 274.004 L 1326.073 274.004 L 1325.073 242.459 L 1325.073 227.613 L 1326.073 226.686 Z" fill="#87CCEC" style=""/>
  <path d="M 168.073 184.934 L 196.073 184.934 L 196.073 200.707 L 169.073 200.707 L 168.073 199.779 L 168.073 184.934 Z" fill="#87CCEC" style=""/>
  <path d="M 1415.073 211.841 L 1422.073 211.841 L 1423.073 215.552 L 1422.073 219.263 L 1415.073 219.263 L 1414.073 212.768 L 1415.073 211.841 Z" fill="#87CCEC" style=""/>
</svg>